<svg xmlns="http://www.w3.org/2000/svg" viewBox="0 0 800 450" role="img" aria-labelledby="title desc">
  <title id="title">The Trajectory Planning Method for Intelligent Vehicles Using Reinforcement Learning and Risk-Reachable Sets</title>
  <desc id="desc">A vehicle trajectory passing through layered safe reachable regions in a risk-aware planning system.</desc>
  <rect width="800" height="450" fill="#f8fbff"/>
  <path d="M0 340 C180 290 270 360 430 285 S650 165 800 205" fill="none" stroke="#d9e5f3" stroke-width="110"/>
  <path d="M0 340 C180 290 270 360 430 285 S650 165 800 205" fill="none" stroke="#ffffff" stroke-width="76"/>
  <g fill="#d7e8ff" stroke="#82b4f6" stroke-width="3">
    <ellipse cx="280" cy="321" rx="78" ry="42" transform="rotate(-2 280 321)"/>
    <ellipse cx="430" cy="284" rx="86" ry="45" transform="rotate(-25 430 284)"/>
    <ellipse cx="575" cy="219" rx="82" ry="43" transform="rotate(-20 575 219)"/>
  </g>
  <path d="M92 335 C230 300 310 340 430 282 S625 178 716 200" fill="none" stroke="#0b5ed7" stroke-width="9" stroke-linecap="round"/>
  <circle cx="716" cy="200" r="13" fill="#ff9f1c"/>
  <g transform="translate(352 280) rotate(-18)">
    <rect x="-36" y="-18" width="72" height="36" rx="10" fill="#12345b"/>
    <rect x="-19" y="-14" width="38" height="28" rx="6" fill="#9ed0ff"/>
    <circle cx="-23" cy="20" r="7" fill="#202b38"/><circle cx="23" cy="20" r="7" fill="#202b38"/>
  </g>
  <text x="54" y="70" fill="#12345b" font-family="Arial, sans-serif" font-size="34" font-weight="700">RISK-AWARE PLANNING</text>
  <text x="56" y="108" fill="#54708f" font-family="Arial, sans-serif" font-size="20">Safe RL · Reachable Sets · Constrained iLQR</text>
</svg>
